<svg width="22" height="20" viewBox="0 0 22 20" fill="none" xmlns="http://www.w3.org/2000/svg">
<path d="M19.0506 3.88915H15.8414V2.86569C15.8414 1.28952 14.4075 6.10352e-05 12.655 6.10352e-05H8.96768C7.21508 6.10352e-05 5.78128 1.28966 5.78128 2.86569V3.88915H2.54915C1.13803 3.88915 0 4.91262 0 6.18167V8.2286C2.50375 8.98593 5.71292 9.49766 9.46842 9.60004V9.29306C9.46842 8.96552 9.76435 8.69953 10.1284 8.69953H11.4712C11.8354 8.69953 12.1312 8.96567 12.1312 9.29306V9.60004C15.8639 9.49767 19.096 8.98593 21.5996 8.2286V6.18167C21.6225 4.91262 20.4844 3.88915 19.0505 3.88915H19.0506ZM8.12546 2.84525C8.12546 2.43591 8.51237 2.10836 8.94484 2.10836H12.6549C13.11 2.10836 13.4742 2.45632 13.4742 2.84525V3.86872H8.1255L8.12546 2.84525Z" fill="white"/>
<path d="M12.1413 11.4045C12.1413 11.7844 11.8457 12.093 11.482 12.093H10.1177C9.75391 12.093 9.45845 11.7842 9.45845 11.4045V11.1433C5.86603 11.0484 2.63741 10.4784 -6.10352e-05 9.59998V17.3406C-6.10352e-05 18.8127 1.13678 20 2.54642 20H19.0306C20.4402 20 21.5999 18.8127 21.5999 17.3406V9.59998C18.9624 10.4785 15.7111 11.0247 12.1414 11.1433L12.1413 11.4045Z" fill="white"/>
</svg>
