<svg width="48" height="59" viewBox="0 0 48 59" fill="none" xmlns="http://www.w3.org/2000/svg">
<path d="M43.968 17.8029H41.92V13.8332C41.92 12.1958 40.5376 10.856 38.848 10.856H9.15199C7.46239 10.856 6.07999 12.1958 6.07999 13.8332V17.8029H4.03199C2.34239 17.8029 0.959991 19.1426 0.959991 20.7801V46.5828C0.959991 48.2202 2.34239 49.56 4.03199 49.56H43.968C45.6576 49.56 47.04 48.2202 47.04 46.5828V20.7801C47.04 19.1426 45.6576 17.8029 43.968 17.8029ZM8.12799 13.8332C8.12799 13.2874 8.58879 12.8408 9.15199 12.8408H38.848C39.4112 12.8408 39.872 13.2874 39.872 13.8332V17.8029H8.12799V13.8332ZM39.872 19.7877V34.6738C39.872 35.2197 39.4112 35.6663 38.848 35.6663H37.824C37.2608 35.6663 36.8 35.2197 36.8 34.6738V19.7877H39.872ZM34.752 19.7877V30.7042H13.248V19.7877H34.752ZM8.12799 19.7877H11.2V34.6738C11.2 35.2197 10.7392 35.6663 10.176 35.6663H9.15199C8.58879 35.6663 8.12799 35.2197 8.12799 34.6738V19.7877ZM3.00799 20.7801C3.00799 20.2343 3.46879 19.7877 4.03199 19.7877H6.07999V30.7042H3.00799V20.7801ZM44.992 46.5828C44.992 47.1286 44.5312 47.5752 43.968 47.5752H4.03199C3.46879 47.5752 3.00799 47.1286 3.00799 46.5828V32.689H6.07999V34.6738C6.07999 36.3113 7.46239 37.6511 9.15199 37.6511H10.176C11.8656 37.6511 13.248 36.3113 13.248 34.6738V32.689H34.752V34.6738C34.752 36.3113 36.1344 37.6511 37.824 37.6511H38.848C40.5376 37.6511 41.92 36.3113 41.92 34.6738V32.689H44.992V46.5828ZM44.992 30.7042H41.92V19.7877H43.968C44.5312 19.7877 44.992 20.2343 44.992 20.7801V30.7042Z" fill="#143975"/>
</svg>
