<svg width="28" height="22" viewBox="0 0 28 22" fill="none" xmlns="http://www.w3.org/2000/svg">
<path d="M24.3989 2.75H18.347V1.85714C18.347 0.821428 17.4661 0 16.3553 0H11.6824C10.5716 0 9.69061 0.821428 9.69061 1.85714V2.75H3.63877C1.68532 2.75 0 4.25 0 5.46428V6.39286V10.0714V17.9286C0 20.3214 1.49381 22 3.63877 22H24.3606C26.5056 22 27.9994 20.3214 27.9994 17.9286V10.0714V6.39286V5.46428C28.0377 4.25 26.3523 2.75 24.3989 2.75ZM10.8014 1.85714C10.8014 1.39286 11.2227 1 11.7207 1H16.3553C16.8532 1 17.2746 1.39286 17.2746 1.85714V2.75H10.8014V1.85714ZM1.11078 5.46428C1.11078 4.89286 2.22156 3.75 3.67707 3.75H24.3989C25.8544 3.75 26.9652 4.89286 26.9652 5.46428V6.39286V10.0714C26.9652 10.6429 26.4672 11.1429 25.8161 11.1429H15.6276V10.5714C15.6276 10 15.1679 9.53571 14.5934 9.42857C14.5551 9.42857 14.5168 9.42857 14.4785 9.42857H14.4019C14.3636 9.42857 14.3253 9.42857 14.287 9.42857C13.7124 9.5 13.2528 10 13.2528 10.5714V11.1429C13.2145 11.1429 13.2145 11.1429 13.1762 11.1429H2.22156C1.60872 11.1429 1.07248 10.6786 1.07248 10.0714V6.39286V5.46428H1.11078ZM14.8998 10.5714V12.5714C14.8998 12.8214 14.7083 13 14.4402 13.0357C14.172 13 13.9805 12.8214 13.9805 12.5714V10.5714C13.9805 10.3214 14.172 10.1429 14.4402 10.1071C14.67 10.1429 14.8998 10.3571 14.8998 10.5714ZM24.3989 21H3.63877C2.10666 21 1.07248 19.7857 1.07248 17.9286V11.8571C1.4172 12.0357 1.80023 12.1429 2.22156 12.1429H13.1762C13.2145 12.1429 13.2145 12.1429 13.2528 12.1429V12.5714C13.2528 13.1429 13.7124 13.6071 14.287 13.7143C14.3253 13.7143 14.3636 13.7143 14.4019 13.7143H14.4785C14.5168 13.7143 14.5551 13.7143 14.5934 13.7143C15.1679 13.6429 15.6276 13.1429 15.6276 12.5714V12.1786H25.8161C26.2374 12.1786 26.6205 12.0714 26.9652 11.8929V17.9643C26.9269 19.75 25.931 21 24.3989 21Z" fill="#143975"/>
</svg>
