<svg width="26" height="33" viewBox="0 0 26 33" fill="none" xmlns="http://www.w3.org/2000/svg">
<path d="M16.25 5.77499H9.75C9.10413 5.77695 8.48526 6.03834 8.02856 6.50207C7.57186 6.9658 7.31443 7.59419 7.3125 8.24999V10.725H8.9375V8.24999C8.9375 8.03119 9.0231 7.82135 9.17548 7.66663C9.32785 7.51191 9.53451 7.42499 9.75 7.42499H16.25C16.4655 7.42499 16.6722 7.51191 16.8245 7.66663C16.9769 7.82135 17.0625 8.03119 17.0625 8.24999V10.725H18.6875V8.24999C18.6856 7.59419 18.4281 6.9658 17.9714 6.50207C17.5147 6.03834 16.8959 5.77695 16.25 5.77499Z" fill="white"/>
<path d="M17.0625 10.725H8.9375V27.225H17.0625V10.725Z" fill="white"/>
<path d="M21.9375 10.725H18.6875V27.225H21.9375C22.584 27.225 23.204 26.9642 23.6611 26.5001C24.1182 26.0359 24.375 25.4064 24.375 24.75V13.2C24.375 12.5436 24.1182 11.9141 23.6611 11.4499C23.204 10.9857 22.584 10.725 21.9375 10.725Z" fill="white"/>
<path d="M1.625 13.2V24.75C1.625 25.4064 1.88181 26.0359 2.33893 26.5001C2.79605 26.9642 3.41603 27.225 4.0625 27.225H7.3125V10.725H4.0625C3.41603 10.725 2.79605 10.9857 2.33893 11.4499C1.88181 11.9141 1.625 12.5436 1.625 13.2Z" fill="white"/>
</svg>
