<svg width="38" height="32" viewBox="0 0 38 32" fill="none" xmlns="http://www.w3.org/2000/svg">
<path d="M33.1128 4H24.8996V2.7013C24.8996 1.1948 23.704 0 22.1965 0H15.8546C14.3471 0 13.1515 1.1948 13.1515 2.7013V4H4.93833C2.28723 4 0 6.18182 0 7.94805V9.2987V14.6494V26.0779C0 29.5584 2.02731 32 4.93833 32H33.0608C35.9718 32 37.9991 29.5584 37.9991 26.0779V14.6494V9.2987V7.94805C38.0511 6.18182 35.7639 4 33.1128 4ZM14.659 2.7013C14.659 2.02597 15.2308 1.45455 15.9066 1.45455H22.1965C22.8723 1.45455 23.4441 2.02597 23.4441 2.7013V4H14.659V2.7013ZM1.50749 7.94805C1.50749 7.11688 3.01498 5.45455 4.99031 5.45455H33.1128C35.0881 5.45455 36.5956 7.11688 36.5956 7.94805V9.2987V14.6494C36.5956 15.4805 35.9198 16.2078 35.0361 16.2078H21.2088V15.3766C21.2088 14.5455 20.585 13.8701 19.8053 13.7143C19.7533 13.7143 19.7013 13.7143 19.6493 13.7143H19.5454C19.4934 13.7143 19.4414 13.7143 19.3894 13.7143C18.6097 13.8182 17.9859 14.5455 17.9859 15.3766V16.2078C17.9339 16.2078 17.9339 16.2078 17.8819 16.2078H3.01498C2.18326 16.2078 1.45551 15.5325 1.45551 14.6494V9.2987V7.94805H1.50749ZM20.2212 15.3766V18.2857C20.2212 18.6494 19.9612 18.9091 19.5974 18.961C19.2335 18.9091 18.9736 18.6494 18.9736 18.2857V15.3766C18.9736 15.013 19.2335 14.7532 19.5974 14.7013C19.9093 14.7532 20.2212 15.0649 20.2212 15.3766ZM33.1128 30.5455H4.93833C2.85903 30.5455 1.45551 28.7792 1.45551 26.0779V17.2468C1.92335 17.5065 2.44317 17.6623 3.01498 17.6623H17.8819C17.9339 17.6623 17.9339 17.6623 17.9859 17.6623V18.2857C17.9859 19.1169 18.6097 19.7922 19.3894 19.9481C19.4414 19.9481 19.4934 19.9481 19.5454 19.9481H19.6493C19.7013 19.9481 19.7533 19.9481 19.8053 19.9481C20.585 19.8442 21.2088 19.1169 21.2088 18.2857V17.7143H35.0361C35.6079 17.7143 36.1278 17.5584 36.5956 17.2987V26.1299C36.5436 28.7273 35.1921 30.5455 33.1128 30.5455Z" fill="#FFA033"/>
</svg>
