<svg width="29" height="29" viewBox="0 0 29 29" fill="none" xmlns="http://www.w3.org/2000/svg">
<path d="M28.3054 28.275H26.9504C26.9507 28.2674 26.9547 28.2612 26.9547 28.2532V9.17449C26.9547 8.97402 26.7945 8.81198 26.5964 8.81198H19.7971V3.64734C19.7971 3.49436 19.7021 3.35769 19.5599 3.30622L10.5087 0.0208165C10.3987 -0.0183342 10.2772 -0.00165905 10.1816 0.0657673C10.0859 0.133556 10.0293 0.244121 10.0293 0.361936V6.46547H4.54744C4.34931 6.46547 4.18915 6.62751 4.18915 6.82798V13.1207H2.46971C2.27157 13.1207 2.11142 13.2828 2.11142 13.4832V28.275H0.358292C0.160157 28.275 0 28.437 0 28.6375C0 28.838 0.160157 29 0.358292 29H28.3051C28.5032 29 28.6634 28.838 28.6634 28.6375C28.6634 28.437 28.5036 28.275 28.3054 28.275ZM10.7459 0.877058L19.0805 3.90291V8.81198H17.7355C17.5373 8.81198 17.3772 8.97402 17.3772 9.17449V12.7869L14.9024 12.1115V6.82798C14.9024 6.62751 14.7423 6.46547 14.5441 6.46547H10.7459V0.877058ZM4.90574 7.19048H14.1855V9.15165H4.90574V7.19048ZM9.45927 28.275H2.82836V13.8458H9.45963L9.45927 28.275ZM11.327 11.2828C11.2385 11.3513 11.1866 11.4579 11.1866 11.571L11.2063 28.275H10.1759V13.4832C10.1759 13.2828 10.0157 13.1207 9.81756 13.1207H4.90574V9.87666H14.1855V11.9158L11.6384 11.2205C11.5306 11.1922 11.4155 11.2147 11.327 11.2828ZM11.9229 28.275L11.9039 12.0441L18.4184 13.8222L18.4377 28.275H11.9229ZM19.1543 28.275L19.1346 13.5438C19.1342 13.3799 19.0257 13.2367 18.8698 13.194L18.0937 12.9823V9.53699H26.2377V28.2532C26.2377 28.2608 26.2417 28.2674 26.242 28.275H19.1543Z" fill="#143975"/>
<path d="M4.5497 22.1121C4.74783 22.1121 4.90799 21.95 4.90799 21.7496V20.2977C4.90799 20.0973 4.74783 19.9352 4.5497 19.9352C4.35156 19.9352 4.19141 20.0973 4.19141 20.2977V21.7496C4.19141 21.95 4.35192 22.1121 4.5497 22.1121Z" fill="#143975"/>
<path d="M6.14357 22.1121C6.34171 22.1121 6.50186 21.95 6.50186 21.7496V20.2977C6.50186 20.0973 6.34171 19.9352 6.14357 19.9352C5.94543 19.9352 5.78528 20.0973 5.78528 20.2977V21.7496C5.78528 21.95 5.94579 22.1121 6.14357 22.1121Z" fill="#143975"/>
<path d="M7.74141 22.1121C7.93955 22.1121 8.0997 21.95 8.0997 21.7496V20.2977C8.0997 20.0973 7.93955 19.9352 7.74141 19.9352C7.54327 19.9352 7.38312 20.0973 7.38312 20.2977V21.7496C7.38312 21.95 7.54327 22.1121 7.74141 22.1121Z" fill="#143975"/>
<path d="M13.5635 15.8333C13.3654 15.8333 13.2052 15.9954 13.2052 16.1958V17.6477C13.2052 17.8481 13.3654 18.0102 13.5635 18.0102C13.7616 18.0102 13.9218 17.8481 13.9218 17.6477V16.1958C13.9218 15.9954 13.7616 15.8333 13.5635 15.8333Z" fill="#143975"/>
<path d="M15.1619 15.8333C14.9637 15.8333 14.8036 15.9954 14.8036 16.1958V17.6477C14.8036 17.8481 14.9637 18.0102 15.1619 18.0102C15.36 18.0102 15.5202 17.8481 15.5202 17.6477V16.1958C15.5202 15.9954 15.36 15.8333 15.1619 15.8333Z" fill="#143975"/>
<path d="M16.758 15.8333C16.5599 15.8333 16.3997 15.9954 16.3997 16.1958V17.6477C16.3997 17.8481 16.5599 18.0102 16.758 18.0102C16.9561 18.0102 17.1163 17.8481 17.1163 17.6477V16.1958C17.1163 15.9954 16.9558 15.8333 16.758 15.8333Z" fill="#143975"/>
<path d="M13.5635 19.9352C13.3654 19.9352 13.2052 20.0973 13.2052 20.2977V21.7496C13.2052 21.95 13.3654 22.1121 13.5635 22.1121C13.7616 22.1121 13.9218 21.95 13.9218 21.7496V20.2977C13.9218 20.0973 13.7616 19.9352 13.5635 19.9352Z" fill="#143975"/>
<path d="M15.1619 19.9352C14.9637 19.9352 14.8036 20.0973 14.8036 20.2977V21.7496C14.8036 21.95 14.9637 22.1121 15.1619 22.1121C15.36 22.1121 15.5202 21.95 15.5202 21.7496V20.2977C15.5202 20.0973 15.36 19.9352 15.1619 19.9352Z" fill="#143975"/>
<path d="M16.758 19.9352C16.5599 19.9352 16.3997 20.0973 16.3997 20.2977V21.7496C16.3997 21.95 16.5599 22.1121 16.758 22.1121C16.9561 22.1121 17.1163 21.95 17.1163 21.7496V20.2977C17.1163 20.0973 16.9558 19.9352 16.758 19.9352Z" fill="#143975"/>
<path d="M21.1987 15.8333C21.0005 15.8333 20.8404 15.9954 20.8404 16.1958V17.6477C20.8404 17.8481 21.0005 18.0102 21.1987 18.0102C21.3968 18.0102 21.5569 17.8481 21.5569 17.6477V16.1958C21.5569 15.9954 21.3968 15.8333 21.1987 15.8333Z" fill="#143975"/>
<path d="M22.7953 15.8333C22.5972 15.8333 22.437 15.9954 22.437 16.1958V17.6477C22.437 17.8481 22.5972 18.0102 22.7953 18.0102C22.9935 18.0102 23.1536 17.8481 23.1536 17.6477V16.1958C23.1536 15.9954 22.9935 15.8333 22.7953 15.8333Z" fill="#143975"/>
<path d="M24.3903 15.8333C24.1922 15.8333 24.032 15.9954 24.032 16.1958V17.6477C24.032 17.8481 24.1922 18.0102 24.3903 18.0102C24.5885 18.0102 24.7486 17.8481 24.7486 17.6477V16.1958C24.7486 15.9954 24.5885 15.8333 24.3903 15.8333Z" fill="#143975"/>
<path d="M4.5497 18.0102C4.74783 18.0102 4.90799 17.8481 4.90799 17.6477V16.1958C4.90799 15.9954 4.74783 15.8333 4.5497 15.8333C4.35156 15.8333 4.19141 15.9954 4.19141 16.1958V17.6477C4.19141 17.8478 4.35192 18.0102 4.5497 18.0102Z" fill="#143975"/>
<path d="M6.14357 18.0102C6.34171 18.0102 6.50186 17.8481 6.50186 17.6477V16.1958C6.50186 15.9954 6.34171 15.8333 6.14357 15.8333C5.94543 15.8333 5.78528 15.9954 5.78528 16.1958V17.6477C5.78528 17.8478 5.94579 18.0102 6.14357 18.0102Z" fill="#143975"/>
<path d="M7.74141 18.0102C7.93955 18.0102 8.0997 17.8481 8.0997 17.6477V16.1958C8.0997 15.9954 7.93955 15.8333 7.74141 15.8333C7.54327 15.8333 7.38312 15.9954 7.38312 16.1958V17.6477C7.38312 17.8478 7.54327 18.0102 7.74141 18.0102Z" fill="#143975"/>
<path d="M21.1987 19.9352C21.0005 19.9352 20.8404 20.0973 20.8404 20.2977V21.7496C20.8404 21.95 21.0005 22.1121 21.1987 22.1121C21.3968 22.1121 21.5569 21.95 21.5569 21.7496V20.2977C21.5569 20.0973 21.3968 19.9352 21.1987 19.9352Z" fill="#143975"/>
<path d="M22.7953 19.9352C22.5972 19.9352 22.437 20.0973 22.437 20.2977V21.7496C22.437 21.95 22.5972 22.1121 22.7953 22.1121C22.9935 22.1121 23.1536 21.95 23.1536 21.7496V20.2977C23.1536 20.0973 22.9935 19.9352 22.7953 19.9352Z" fill="#143975"/>
<path d="M24.3903 19.9352C24.1922 19.9352 24.032 20.0973 24.032 20.2977V21.7496C24.032 21.95 24.1922 22.1121 24.3903 22.1121C24.5885 22.1121 24.7486 21.95 24.7486 21.7496V20.2977C24.7486 20.0973 24.5885 19.9352 24.3903 19.9352Z" fill="#143975"/>
<path d="M4.5497 26.0471C4.74783 26.0471 4.90799 25.8851 4.90799 25.6846V24.2331C4.90799 24.0327 4.74783 23.8706 4.5497 23.8706C4.35156 23.8706 4.19141 24.0327 4.19141 24.2331V25.6846C4.19141 25.8847 4.35192 26.0471 4.5497 26.0471Z" fill="#143975"/>
<path d="M6.14357 26.0471C6.34171 26.0471 6.50186 25.8851 6.50186 25.6846V24.2331C6.50186 24.0327 6.34171 23.8706 6.14357 23.8706C5.94543 23.8706 5.78528 24.0327 5.78528 24.2331V25.6846C5.78528 25.8847 5.94579 26.0471 6.14357 26.0471Z" fill="#143975"/>
<path d="M7.74141 26.0471C7.93955 26.0471 8.0997 25.8851 8.0997 25.6846V24.2331C8.0997 24.0327 7.93955 23.8706 7.74141 23.8706C7.54327 23.8706 7.38312 24.0327 7.38312 24.2331V25.6846C7.38312 25.8847 7.54327 26.0471 7.74141 26.0471Z" fill="#143975"/>
<path d="M13.5635 23.8706C13.3654 23.8706 13.2052 24.0327 13.2052 24.2331V25.6846C13.2052 25.8851 13.3654 26.0471 13.5635 26.0471C13.7616 26.0471 13.9218 25.8851 13.9218 25.6846V24.2331C13.9218 24.0327 13.7616 23.8706 13.5635 23.8706Z" fill="#143975"/>
<path d="M15.1619 23.8706C14.9637 23.8706 14.8036 24.0327 14.8036 24.2331V25.6846C14.8036 25.8851 14.9637 26.0471 15.1619 26.0471C15.36 26.0471 15.5202 25.8851 15.5202 25.6846V24.2331C15.5202 24.0327 15.36 23.8706 15.1619 23.8706Z" fill="#143975"/>
<path d="M16.758 23.8706C16.5599 23.8706 16.3997 24.0327 16.3997 24.2331V25.6846C16.3997 25.8851 16.5599 26.0471 16.758 26.0471C16.9561 26.0471 17.1163 25.8851 17.1163 25.6846V24.2331C17.1163 24.0327 16.9558 23.8706 16.758 23.8706Z" fill="#143975"/>
<path d="M21.1987 23.8706C21.0005 23.8706 20.8404 24.0327 20.8404 24.2331V25.6846C20.8404 25.8851 21.0005 26.0471 21.1987 26.0471C21.3968 26.0471 21.5569 25.8851 21.5569 25.6846V24.2331C21.5569 24.0327 21.3968 23.8706 21.1987 23.8706Z" fill="#143975"/>
<path d="M22.7953 23.8706C22.5972 23.8706 22.437 24.0327 22.437 24.2331V25.6846C22.437 25.8851 22.5972 26.0471 22.7953 26.0471C22.9935 26.0471 23.1536 25.8851 23.1536 25.6846V24.2331C23.1536 24.0327 22.9935 23.8706 22.7953 23.8706Z" fill="#143975"/>
<path d="M24.3903 23.8706C24.1922 23.8706 24.032 24.0327 24.032 24.2331V25.6846C24.032 25.8851 24.1922 26.0471 24.3903 26.0471C24.5885 26.0471 24.7486 25.8851 24.7486 25.6846V24.2331C24.7486 24.0327 24.5885 23.8706 24.3903 23.8706Z" fill="#143975"/>
<path d="M21.1987 11.6045C21.0005 11.6045 20.8404 11.7666 20.8404 11.967V13.4189C20.8404 13.6193 21.0005 13.7814 21.1987 13.7814C21.3968 13.7814 21.5569 13.6193 21.5569 13.4189V11.967C21.5569 11.7666 21.3968 11.6045 21.1987 11.6045Z" fill="#143975"/>
<path d="M22.7953 11.6045C22.5972 11.6045 22.437 11.7666 22.437 11.967V13.4189C22.437 13.6193 22.5972 13.7814 22.7953 13.7814C22.9935 13.7814 23.1536 13.6193 23.1536 13.4189V11.967C23.1536 11.7666 22.9935 11.6045 22.7953 11.6045Z" fill="#143975"/>
<path d="M24.3903 11.6045C24.1922 11.6045 24.032 11.7666 24.032 11.967V13.4189C24.032 13.6193 24.1922 13.7814 24.3903 13.7814C24.5885 13.7814 24.7486 13.6193 24.7486 13.4189V11.967C24.7486 11.7666 24.5885 11.6045 24.3903 11.6045Z" fill="#143975"/>
</svg>
