<svg width="39" height="39" viewBox="0 0 39 39" fill="none" xmlns="http://www.w3.org/2000/svg">
<path d="M38.0776 38.025H36.2553C36.2558 38.0147 36.2611 38.0065 36.2611 37.9957V12.3381C36.2611 12.0685 36.0457 11.8506 35.7793 11.8506H26.6354V4.90504C26.6354 4.69931 26.5077 4.51552 26.3164 4.44629L14.1441 0.0279947C13.9962 -0.0246564 13.8328 -0.00223113 13.7042 0.0884457C13.5755 0.17961 13.4994 0.328301 13.4994 0.486741V8.69494H6.12724C5.86079 8.69494 5.6454 8.91286 5.6454 9.18245V17.6451H3.33305C3.06659 17.6451 2.85121 17.863 2.85121 18.1326V38.025H0.49356C0.227102 38.025 0.0117188 38.2429 0.0117188 38.5125C0.0117188 38.7821 0.227102 39 0.49356 39H38.0772C38.3436 39 38.559 38.7821 38.559 38.5125C38.559 38.2429 38.3441 38.025 38.0776 38.025ZM14.4631 1.17949L25.6717 5.24873V11.8506H23.8628C23.5964 11.8506 23.381 12.0685 23.381 12.3381V17.1961L20.0529 16.2879V9.18245C20.0529 8.91286 19.8375 8.69494 19.5711 8.69494H14.4631V1.17949ZM6.60909 9.66996H19.0888V12.3074H6.60909V9.66996ZM12.7328 38.025H3.81537V18.6201H12.7333L12.7328 38.025ZM15.2446 15.1735C15.1256 15.2656 15.0558 15.4089 15.0558 15.561L15.0823 38.025H13.6965V18.1326C13.6965 17.863 13.4811 17.6451 13.2146 17.6451H6.60909V13.2824H19.0888V16.0246L15.6634 15.0896C15.5183 15.0516 15.3637 15.0818 15.2446 15.1735ZM16.0459 38.025L16.0204 16.1972L24.7812 18.5885L24.8073 38.025H16.0459ZM25.7709 38.025L25.7444 18.2141C25.744 17.9937 25.598 17.8011 25.3884 17.7436L24.3447 17.4589V12.8256H35.2969V37.9957C35.2969 38.006 35.3022 38.0147 35.3027 38.025H25.7709Z" fill="#FFA033"/>
<path d="M6.13028 29.7359C6.39674 29.7359 6.61212 29.518 6.61212 29.2484V27.2959C6.61212 27.0263 6.39674 26.8084 6.13028 26.8084C5.86382 26.8084 5.64844 27.0263 5.64844 27.2959V29.2484C5.64844 29.518 5.8643 29.7359 6.13028 29.7359Z" fill="#FFA033"/>
<path d="M8.27545 29.7359C8.54191 29.7359 8.75729 29.518 8.75729 29.2484V27.2959C8.75729 27.0263 8.54191 26.8084 8.27545 26.8084C8.00899 26.8084 7.79361 27.0263 7.79361 27.2959V29.2484C7.79361 29.518 8.00947 29.7359 8.27545 29.7359Z" fill="#FFA033"/>
<path d="M10.4227 29.7359C10.6891 29.7359 10.9045 29.518 10.9045 29.2484V27.2959C10.9045 27.0263 10.6891 26.8084 10.4227 26.8084C10.1562 26.8084 9.94083 27.0263 9.94083 27.2959V29.2484C9.94083 29.518 10.1562 29.7359 10.4227 29.7359Z" fill="#FFA033"/>
<path d="M18.254 21.2931C17.9875 21.2931 17.7721 21.511 17.7721 21.7806V23.7331C17.7721 24.0027 17.9875 24.2206 18.254 24.2206C18.5204 24.2206 18.7358 24.0027 18.7358 23.7331V21.7806C18.7358 21.511 18.5204 21.2931 18.254 21.2931Z" fill="#FFA033"/>
<path d="M20.4012 21.2931C20.1347 21.2931 19.9193 21.511 19.9193 21.7806V23.7331C19.9193 24.0027 20.1347 24.2206 20.4012 24.2206C20.6676 24.2206 20.883 24.0027 20.883 23.7331V21.7806C20.883 21.511 20.6676 21.2931 20.4012 21.2931Z" fill="#FFA033"/>
<path d="M22.5484 21.2931C22.2819 21.2931 22.0666 21.511 22.0666 21.7806V23.7331C22.0666 24.0027 22.2819 24.2206 22.5484 24.2206C22.8149 24.2206 23.0302 24.0027 23.0302 23.7331V21.7806C23.0302 21.511 22.8144 21.2931 22.5484 21.2931Z" fill="#FFA033"/>
<path d="M18.254 26.8084C17.9875 26.8084 17.7721 27.0263 17.7721 27.2959V29.2484C17.7721 29.518 17.9875 29.7359 18.254 29.7359C18.5204 29.7359 18.7358 29.518 18.7358 29.2484V27.2959C18.7358 27.0263 18.5204 26.8084 18.254 26.8084Z" fill="#FFA033"/>
<path d="M20.4012 26.8084C20.1347 26.8084 19.9193 27.0263 19.9193 27.2959V29.2484C19.9193 29.518 20.1347 29.7359 20.4012 29.7359C20.6676 29.7359 20.883 29.518 20.883 29.2484V27.2959C20.883 27.0263 20.6676 26.8084 20.4012 26.8084Z" fill="#FFA033"/>
<path d="M22.5484 26.8084C22.2819 26.8084 22.0666 27.0263 22.0666 27.2959V29.2484C22.0666 29.518 22.2819 29.7359 22.5484 29.7359C22.8149 29.7359 23.0302 29.518 23.0302 29.2484V27.2959C23.0302 27.0263 22.8144 26.8084 22.5484 26.8084Z" fill="#FFA033"/>
<path d="M28.5186 21.2931C28.2522 21.2931 28.0368 21.511 28.0368 21.7806V23.7331C28.0368 24.0027 28.2522 24.2206 28.5186 24.2206C28.7851 24.2206 29.0005 24.0027 29.0005 23.7331V21.7806C29.0005 21.511 28.7851 21.2931 28.5186 21.2931Z" fill="#FFA033"/>
<path d="M30.6659 21.2931C30.3994 21.2931 30.184 21.511 30.184 21.7806V23.7331C30.184 24.0027 30.3994 24.2206 30.6659 24.2206C30.9323 24.2206 31.1477 24.0027 31.1477 23.7331V21.7806C31.1477 21.511 30.9323 21.2931 30.6659 21.2931Z" fill="#FFA033"/>
<path d="M32.8131 21.2931C32.5466 21.2931 32.3312 21.511 32.3312 21.7806V23.7331C32.3312 24.0027 32.5466 24.2206 32.8131 24.2206C33.0795 24.2206 33.2949 24.0027 33.2949 23.7331V21.7806C33.2949 21.511 33.0795 21.2931 32.8131 21.2931Z" fill="#FFA033"/>
<path d="M6.13028 24.2206C6.39674 24.2206 6.61212 24.0027 6.61212 23.7331V21.7806C6.61212 21.511 6.39674 21.2931 6.13028 21.2931C5.86382 21.2931 5.64844 21.511 5.64844 21.7806V23.7331C5.64844 24.0022 5.8643 24.2206 6.13028 24.2206Z" fill="#FFA033"/>
<path d="M8.27545 24.2206C8.54191 24.2206 8.75729 24.0027 8.75729 23.7331V21.7806C8.75729 21.511 8.54191 21.2931 8.27545 21.2931C8.00899 21.2931 7.79361 21.511 7.79361 21.7806V23.7331C7.79361 24.0022 8.00947 24.2206 8.27545 24.2206Z" fill="#FFA033"/>
<path d="M10.4227 24.2206C10.6891 24.2206 10.9045 24.0027 10.9045 23.7331V21.7806C10.9045 21.511 10.6891 21.2931 10.4227 21.2931C10.1562 21.2931 9.94083 21.511 9.94083 21.7806V23.7331C9.94083 24.0022 10.1562 24.2206 10.4227 24.2206Z" fill="#FFA033"/>
<path d="M28.5186 26.8084C28.2522 26.8084 28.0368 27.0263 28.0368 27.2959V29.2484C28.0368 29.518 28.2522 29.7359 28.5186 29.7359C28.7851 29.7359 29.0005 29.518 29.0005 29.2484V27.2959C29.0005 27.0263 28.7851 26.8084 28.5186 26.8084Z" fill="#FFA033"/>
<path d="M30.6659 26.8084C30.3994 26.8084 30.184 27.0263 30.184 27.2959V29.2484C30.184 29.518 30.3994 29.7359 30.6659 29.7359C30.9323 29.7359 31.1477 29.518 31.1477 29.2484V27.2959C31.1477 27.0263 30.9323 26.8084 30.6659 26.8084Z" fill="#FFA033"/>
<path d="M32.8131 26.8084C32.5466 26.8084 32.3312 27.0263 32.3312 27.2959V29.2484C32.3312 29.518 32.5466 29.7359 32.8131 29.7359C33.0795 29.7359 33.2949 29.518 33.2949 29.2484V27.2959C33.2949 27.0263 33.0795 26.8084 32.8131 26.8084Z" fill="#FFA033"/>
<path d="M6.13028 35.0293C6.39674 35.0293 6.61212 34.8114 6.61212 34.5418V32.5898C6.61212 32.3202 6.39674 32.1023 6.13028 32.1023C5.86382 32.1023 5.64844 32.3202 5.64844 32.5898V34.5418C5.64844 34.8109 5.8643 35.0293 6.13028 35.0293Z" fill="#FFA033"/>
<path d="M8.27545 35.0293C8.54191 35.0293 8.75729 34.8114 8.75729 34.5418V32.5898C8.75729 32.3202 8.54191 32.1023 8.27545 32.1023C8.00899 32.1023 7.79361 32.3202 7.79361 32.5898V34.5418C7.79361 34.8109 8.00947 35.0293 8.27545 35.0293Z" fill="#FFA033"/>
<path d="M10.4227 35.0293C10.6891 35.0293 10.9045 34.8114 10.9045 34.5418V32.5898C10.9045 32.3202 10.6891 32.1023 10.4227 32.1023C10.1562 32.1023 9.94083 32.3202 9.94083 32.5898V34.5418C9.94083 34.8109 10.1562 35.0293 10.4227 35.0293Z" fill="#FFA033"/>
<path d="M18.254 32.1023C17.9875 32.1023 17.7721 32.3202 17.7721 32.5898V34.5418C17.7721 34.8114 17.9875 35.0293 18.254 35.0293C18.5204 35.0293 18.7358 34.8114 18.7358 34.5418V32.5898C18.7358 32.3202 18.5204 32.1023 18.254 32.1023Z" fill="#FFA033"/>
<path d="M20.4012 32.1023C20.1347 32.1023 19.9193 32.3202 19.9193 32.5898V34.5418C19.9193 34.8114 20.1347 35.0293 20.4012 35.0293C20.6676 35.0293 20.883 34.8114 20.883 34.5418V32.5898C20.883 32.3202 20.6676 32.1023 20.4012 32.1023Z" fill="#FFA033"/>
<path d="M22.5484 32.1023C22.2819 32.1023 22.0666 32.3202 22.0666 32.5898V34.5418C22.0666 34.8114 22.2819 35.0293 22.5484 35.0293C22.8149 35.0293 23.0302 34.8114 23.0302 34.5418V32.5898C23.0302 32.3202 22.8144 32.1023 22.5484 32.1023Z" fill="#FFA033"/>
<path d="M28.5186 32.1023C28.2522 32.1023 28.0368 32.3202 28.0368 32.5898V34.5418C28.0368 34.8114 28.2522 35.0293 28.5186 35.0293C28.7851 35.0293 29.0005 34.8114 29.0005 34.5418V32.5898C29.0005 32.3202 28.7851 32.1023 28.5186 32.1023Z" fill="#FFA033"/>
<path d="M30.6659 32.1023C30.3994 32.1023 30.184 32.3202 30.184 32.5898V34.5418C30.184 34.8114 30.3994 35.0293 30.6659 35.0293C30.9323 35.0293 31.1477 34.8114 31.1477 34.5418V32.5898C31.1477 32.3202 30.9323 32.1023 30.6659 32.1023Z" fill="#FFA033"/>
<path d="M32.8131 32.1023C32.5466 32.1023 32.3312 32.3202 32.3312 32.5898V34.5418C32.3312 34.8114 32.5466 35.0293 32.8131 35.0293C33.0795 35.0293 33.2949 34.8114 33.2949 34.5418V32.5898C33.2949 32.3202 33.0795 32.1023 32.8131 32.1023Z" fill="#FFA033"/>
<path d="M28.5186 15.606C28.2522 15.606 28.0368 15.8239 28.0368 16.0935V18.0459C28.0368 18.3155 28.2522 18.5335 28.5186 18.5335C28.7851 18.5335 29.0005 18.3155 29.0005 18.0459V16.0935C29.0005 15.8239 28.7851 15.606 28.5186 15.606Z" fill="#FFA033"/>
<path d="M30.6659 15.606C30.3994 15.606 30.184 15.8239 30.184 16.0935V18.0459C30.184 18.3155 30.3994 18.5335 30.6659 18.5335C30.9323 18.5335 31.1477 18.3155 31.1477 18.0459V16.0935C31.1477 15.8239 30.9323 15.606 30.6659 15.606Z" fill="#FFA033"/>
<path d="M32.8131 15.606C32.5466 15.606 32.3312 15.8239 32.3312 16.0935V18.0459C32.3312 18.3155 32.5466 18.5335 32.8131 18.5335C33.0795 18.5335 33.2949 18.3155 33.2949 18.0459V16.0935C33.2949 15.8239 33.0795 15.606 32.8131 15.606Z" fill="#FFA033"/>
</svg>
