<svg width="27" height="37" viewBox="0 0 27 37" fill="none" xmlns="http://www.w3.org/2000/svg">
<path d="M24.3625 0H2.64286C1.94214 0.000699666 1.27033 0.279367 0.774847 0.774848C0.279367 1.27033 0.000699666 1.94214 0 2.64286V34.3571C0.000699666 35.0579 0.279367 35.7297 0.774847 36.2252C1.27033 36.7206 1.94214 36.9993 2.64286 37H24.3625C25.0632 36.9993 25.7351 36.7206 26.2305 36.2252C26.726 35.7297 27.0047 35.0579 27.0054 34.3571V2.64286C27.0047 1.94214 26.726 1.27033 26.2305 0.774848C25.7351 0.279367 25.0632 0.000699666 24.3625 0ZM25.684 34.3571C25.6835 34.7075 25.5441 35.0433 25.2964 35.291C25.0487 35.5387 24.7128 35.6781 24.3625 35.6786H2.64286C2.29253 35.6781 1.95669 35.5387 1.70897 35.291C1.46125 35.0433 1.32188 34.7075 1.32143 34.3571V2.64286C1.32188 2.29253 1.46125 1.95669 1.70897 1.70897C1.95669 1.46125 2.29253 1.32188 2.64286 1.32143H24.3625C24.7128 1.32188 25.0487 1.46125 25.2964 1.70897C25.5441 1.95669 25.6835 2.29253 25.684 2.64286V34.3571Z" fill="#FFA033"/>
<path d="M13.5016 19.117C15.1336 19.1134 16.6976 18.4635 17.8516 17.3095C19.0055 16.1556 19.6554 14.5915 19.6591 12.9596C19.3275 4.79441 7.6755 4.79468 7.3442 12.9597C7.34607 14.5921 7.9954 16.1572 9.14974 17.3115C10.3041 18.4659 11.8692 19.1152 13.5016 19.117ZM10.9625 17.0678C11.9104 15.227 14.9763 15.3159 15.7964 17.2153C15.048 17.6153 14.2079 17.8122 13.3598 17.7863C12.5116 17.7604 11.6851 17.5127 10.9625 17.0678ZM13.5016 8.12361C17.7989 8.06745 19.9688 13.5286 16.8634 16.4287C15.528 13.8517 11.4393 13.7324 9.94078 16.2206C7.10212 13.2406 9.34565 8.06558 13.5016 8.12361Z" fill="#FFA033"/>
<path d="M13.5012 13.8202C14.0961 13.8135 14.6644 13.5724 15.0827 13.1493C15.501 12.7262 15.7356 12.1553 15.7356 11.5603C15.7356 10.9653 15.5009 10.3944 15.0826 9.97129C14.6643 9.54822 14.096 9.30715 13.5011 9.30042C12.9062 9.30717 12.3379 9.54825 11.9196 9.97134C11.5013 10.3944 11.2667 10.9654 11.2667 11.5604C11.2667 12.1553 11.5013 12.7263 11.9197 13.1494C12.338 13.5724 12.9062 13.8135 13.5012 13.8202ZM13.5012 10.6218C13.7476 10.6255 13.9828 10.7261 14.1557 10.9017C14.3287 11.0773 14.4257 11.3139 14.4257 11.5603C14.4257 11.8068 14.3287 12.0434 14.1557 12.219C13.9827 12.3946 13.7476 12.4951 13.5011 12.4988C13.2546 12.4952 13.0195 12.3947 12.8464 12.2191C12.6734 12.0435 12.5764 11.8068 12.5764 11.5603C12.5764 11.3138 12.6734 11.0771 12.8465 10.9015C13.0195 10.7259 13.2547 10.6255 13.5012 10.6218Z" fill="#FFA033"/>
<path d="M22.648 21.3932H4.35836C4.18542 21.3966 4.02073 21.4678 3.89965 21.5913C3.77857 21.7148 3.71075 21.8809 3.71075 22.0539C3.71076 22.2269 3.77859 22.393 3.89968 22.5165C4.02077 22.64 4.18546 22.7111 4.35841 22.7146H22.648C22.821 22.7111 22.9857 22.64 23.1067 22.5165C23.2278 22.3929 23.2957 22.2269 23.2957 22.0539C23.2957 21.8809 23.2278 21.7148 23.1067 21.5913C22.9857 21.4677 22.821 21.3966 22.648 21.3932Z" fill="#FFA033"/>
<path d="M21.8967 25.5501H5.10656C4.93356 25.5535 4.76878 25.6246 4.64763 25.7481C4.52648 25.8717 4.45862 26.0378 4.45862 26.2108C4.45863 26.3839 4.5265 26.55 4.64766 26.6735C4.76882 26.7971 4.9336 26.8682 5.1066 26.8715H21.8967C22.0696 26.8681 22.2343 26.7969 22.3554 26.6734C22.4765 26.5499 22.5443 26.3838 22.5443 26.2108C22.5443 26.0378 22.4765 25.8718 22.3554 25.7482C22.2343 25.6247 22.0696 25.5536 21.8967 25.5501Z" fill="#FFA033"/>
<path d="M19.4987 28.8768H7.50645C7.33345 28.8802 7.16867 28.9513 7.04752 29.0749C6.92637 29.1984 6.85851 29.3645 6.85851 29.5376C6.85852 29.7106 6.92639 29.8767 7.04755 30.0003C7.16871 30.1238 7.33349 30.1949 7.5065 30.1983H19.4987C19.6716 30.1948 19.8363 30.1237 19.9574 30.0001C20.0785 29.8766 20.1463 29.7105 20.1463 29.5375C20.1463 29.3646 20.0785 29.1985 19.9574 29.075C19.8363 28.9514 19.6716 28.8803 19.4987 28.8768Z" fill="#FFA033"/>
</svg>
