<svg width="22" height="29" viewBox="0 0 22 29" fill="none" xmlns="http://www.w3.org/2000/svg">
<path d="M19.0949 0H2.07143C1.52222 0.000548387 0.995662 0.218964 0.607313 0.607313C0.218963 0.995662 0.000548387 1.52222 0 2.07143V26.9286C0.000548387 27.4778 0.218963 28.0043 0.607313 28.3927C0.995662 28.781 1.52222 28.9995 2.07143 29H19.0949C19.6442 28.9995 20.1707 28.781 20.5591 28.3927C20.9474 28.0043 21.1658 27.4778 21.1664 26.9286V2.07143C21.1658 1.52222 20.9474 0.995662 20.5591 0.607313C20.1707 0.218964 19.6442 0.000548387 19.0949 0ZM20.1307 26.9286C20.1303 27.2031 20.0211 27.4664 19.8269 27.6605C19.6328 27.8547 19.3695 27.9639 19.0949 27.9643H2.07143C1.79685 27.9639 1.53362 27.8547 1.33946 27.6605C1.1453 27.4664 1.03607 27.2031 1.03571 26.9286V2.07143C1.03607 1.79685 1.1453 1.53362 1.33946 1.33946C1.53362 1.1453 1.79685 1.03607 2.07143 1.03571H19.0949C19.3695 1.03607 19.6328 1.1453 19.8269 1.33946C20.0211 1.53362 20.1303 1.79685 20.1307 2.07143V26.9286Z" fill="#143975"/>
<path d="M10.5825 14.9833C11.8616 14.9804 13.0875 14.4711 13.9919 13.5666C14.8964 12.6622 15.4057 11.4363 15.4086 10.1572C15.1487 3.75744 6.01607 3.75766 5.75641 10.1572C5.75787 11.4367 6.2668 12.6634 7.17156 13.5682C8.07631 14.4729 9.30299 14.9818 10.5825 14.9833ZM8.59238 13.3771C9.3353 11.9344 11.7384 12.004 12.3811 13.4928C11.7946 13.8063 11.1361 13.9606 10.4713 13.9403C9.80654 13.92 9.1587 13.7258 8.59238 13.3771ZM10.5825 6.36682C13.9506 6.3228 15.6514 10.6032 13.2174 12.8762C12.1708 10.8564 8.96604 10.7629 7.79156 12.7131C5.56667 10.3775 7.32511 6.32133 10.5825 6.36682Z" fill="#143975"/>
<path d="M10.5817 10.832C11.048 10.8267 11.4934 10.6377 11.8213 10.3061C12.1491 9.9745 12.333 9.52698 12.333 9.06066C12.333 8.59433 12.1491 8.14682 11.8212 7.81522C11.4934 7.48362 11.048 7.29468 10.5817 7.2894C10.1154 7.29469 9.66999 7.48365 9.34213 7.81526C9.01427 8.14687 8.83039 8.59438 8.8304 9.06071C8.83041 9.52703 9.01429 9.97454 9.34216 10.3061C9.67003 10.6377 10.1154 10.8267 10.5817 10.832ZM10.5817 8.32511C10.7749 8.32802 10.9592 8.40679 11.0948 8.54443C11.2303 8.68206 11.3063 8.8675 11.3063 9.0607C11.3063 9.25389 11.2303 9.43933 11.0947 9.57696C10.9592 9.71459 10.7749 9.79336 10.5817 9.79625C10.3885 9.79339 10.2042 9.71464 10.0686 9.577C9.93295 9.43936 9.85693 9.25389 9.85693 9.06066C9.85693 8.86744 9.93296 8.68197 10.0686 8.54434C10.2042 8.40671 10.3885 8.32796 10.5817 8.32511Z" fill="#143975"/>
<path d="M17.7511 16.7669H3.41596C3.28041 16.7696 3.15132 16.8253 3.05642 16.9222C2.96152 17.019 2.90837 17.1492 2.90837 17.2847C2.90838 17.4203 2.96154 17.5505 3.05645 17.6473C3.15136 17.7441 3.28044 17.7999 3.41599 17.8026H17.7511C17.8866 17.7999 18.0157 17.7441 18.1106 17.6473C18.2055 17.5505 18.2587 17.4203 18.2587 17.2847C18.2587 17.1491 18.2055 17.019 18.1106 16.9221C18.0157 16.8253 17.8866 16.7696 17.7511 16.7669Z" fill="#143975"/>
<path d="M17.1628 20.0262H4.00294C3.86735 20.0288 3.7382 20.0845 3.64324 20.1814C3.54829 20.2782 3.4951 20.4084 3.4951 20.544C3.49511 20.6797 3.5483 20.8099 3.64327 20.9067C3.73823 21.0035 3.86738 21.0592 4.00298 21.0619H17.1628C17.2983 21.0592 17.4274 21.0034 17.5223 20.9066C17.6172 20.8098 17.6704 20.6796 17.6704 20.544C17.6704 20.4084 17.6172 20.2783 17.5223 20.1814C17.4274 20.0846 17.2983 20.0289 17.1628 20.0262Z" fill="#143975"/>
<path d="M15.2825 22.6329H5.88316C5.74757 22.6355 5.61842 22.6912 5.52346 22.7881C5.42851 22.8849 5.37532 23.0151 5.37532 23.1507C5.37533 23.2864 5.42852 23.4166 5.52349 23.5134C5.61845 23.6102 5.7476 23.6659 5.8832 23.6686H15.2825C15.418 23.6659 15.5471 23.6101 15.642 23.5133C15.7369 23.4165 15.7901 23.2863 15.7901 23.1507C15.7901 23.0151 15.7369 22.885 15.642 22.7881C15.5471 22.6913 15.418 22.6356 15.2825 22.6329Z" fill="#143975"/>
</svg>
