<svg width="44" height="55" viewBox="0 0 44 55" fill="none" xmlns="http://www.w3.org/2000/svg">
<path d="M33.9425 22.1413C33.3571 22.4669 33.5247 22.459 33.3571 22.4669C33.0486 22.4808 31.9259 22.597 32.1214 22.4669C32.3159 22.3363 32.459 22.1538 32.4951 22.0111C32.5076 21.9639 32.5275 21.8527 32.4951 21.8161C32.3358 21.6336 31.7712 21.7443 31.5364 21.6864C31.3511 21.6401 31.0079 21.459 30.8199 21.4257C30.6596 21.3974 30.3294 21.3965 30.1696 21.4257C29.7065 21.51 28.6083 22.0111 28.8038 22.7272C28.9992 23.4432 29.1729 23.7248 29.4786 23.8332C29.6416 23.8911 30.0094 23.7674 30.1696 23.8332C30.3396 23.9036 30.5522 24.231 30.6897 24.3538C30.7676 24.4228 30.9167 24.5793 31.0153 24.6141C31.076 24.6358 31.2298 24.5687 31.2752 24.6141C31.3215 24.6608 31.2298 24.8285 31.2752 24.8748C31.4137 25.0124 31.8606 24.8748 32.0561 24.8748C32.1862 24.8748 32.447 24.8748 32.5771 24.8748C32.7073 24.8748 32.968 24.8748 33.0982 24.8748C33.2927 24.8748 33.6836 24.8748 33.879 24.8748C33.9606 24.8748 34.1222 24.8748 34.2028 24.8748C34.3658 24.8748 34.7391 24.9892 34.854 24.8748C34.9462 24.7827 34.854 24.4839 34.854 24.3542C34.854 24.2732 34.854 24.1106 34.854 24.0291C34.854 23.8702 34.6993 23.4302 34.854 23.3936C34.9202 23.3779 34.967 23.4376 35.1787 23.1505C35.6344 22.5326 35.6733 22.7211 35.6344 22.5326C35.6099 22.4108 35.9998 22.4229 36.0902 22.3372C36.2078 22.2265 36.35 21.8175 36.0902 21.6874C35.8294 21.5568 35.7002 21.4919 35.5691 21.4266C35.2282 21.2566 34.138 20.711 34.138 20.9065C34.138 21.101 34.0736 21.4266 34.0736 21.6221C34.0736 21.8161 34.5289 21.8157 33.9425 22.1413Z" fill="#143975"/>
<path d="M21.7114 46.2019C32.1506 46.2019 40.6439 37.7089 40.6439 27.2694C40.6439 16.8293 32.1506 8.33685 21.7114 8.33685C11.2723 8.33685 2.77893 16.8293 2.77893 27.2694C2.77893 37.7089 11.2723 46.2019 21.7114 46.2019ZM39.8631 27.2694C39.8631 27.682 39.8441 28.0896 39.8167 28.4949C39.587 28.5222 39.3355 28.6195 39.2123 28.644C38.8867 28.7093 39.2123 28.644 39.0169 28.644C38.8223 28.644 38.7311 28.8515 38.6269 28.9048C38.5245 28.9552 38.2814 28.9344 38.1721 28.9048C38.0489 28.8705 37.8455 28.7093 37.8455 28.5139C37.8455 28.3189 37.3254 28.2536 36.8697 27.8636C36.4148 27.4731 36.6265 27.375 36.6751 27.2128C36.6988 27.1336 36.639 26.9669 36.6098 26.8896C36.5283 26.6626 36.3917 26.0763 36.1541 26.042C36.0638 26.0286 35.9531 26.2319 35.8943 26.3027C35.7687 26.4528 35.4394 26.953 35.3732 26.89C35.3079 26.8256 35.2857 27.6366 35.3732 27.8645C35.4862 28.1558 35.8725 28.7047 36.1541 28.8404C36.2898 28.9057 36.1541 28.8404 36.545 29.2952C36.935 29.751 36.8437 29.8237 37.0007 29.9455C37.167 30.0756 37.702 29.8552 37.8455 30.0108C37.9785 30.1544 37.9053 30.6059 37.8455 30.7917C37.7779 31.0029 37.5209 31.2474 37.3254 31.5072C37.13 31.768 37.0225 31.7407 36.9345 31.8328C36.6812 32.1038 36.6098 33.069 36.5445 33.264C36.4783 33.4595 36.0897 35.0861 36.0244 35.2811C35.9591 35.476 35.8317 35.6252 35.7636 35.7363C35.4769 36.2009 35.0536 37.2124 34.7878 37.6881C34.4886 38.2235 33.6164 39.575 33.4868 39.77C33.3571 39.965 33.1755 40.1206 33.031 40.1604C32.749 40.2382 32.1228 40.2887 31.8597 40.1604C31.5999 40.034 31.2534 39.518 31.145 39.2494C30.906 38.6589 30.9848 37.3421 30.8843 36.7122C30.8236 36.3347 30.6092 35.5979 30.5596 35.219C30.498 34.7494 30.4934 33.7225 30.4295 33.3321C30.3642 32.9416 30.3868 33.0301 30.4295 32.9416C30.5471 32.6925 29.8431 32.2256 29.6476 32.1608C29.4531 32.0959 29.4531 31.9 29.1928 31.6402C28.933 31.3794 28.7023 31.5452 28.5426 31.5749C28.3652 31.6082 28.0071 31.5184 27.827 31.5096C27.55 31.4971 26.9701 31.6277 26.7205 31.5096C26.2819 31.303 25.759 30.4142 25.4848 30.0136C25.3616 29.8329 25.1592 29.4281 25.0939 29.2327C25.0295 29.0372 24.8994 28.5009 24.8331 28.2568C24.7572 27.9789 24.482 27.437 24.5084 27.1503C24.539 26.809 24.8984 26.3694 25.224 25.9795C25.5478 25.589 25.7006 25.5737 25.8743 25.4589C26.1531 25.2759 26.1351 25.1986 26.8502 24.5483C27.5658 23.8985 26.8502 24.5483 26.8502 24.2232C26.8502 23.8976 26.6413 23.7651 26.72 23.6373C26.7886 23.5256 26.72 23.6373 26.4593 23.182C26.1994 22.7272 26.2374 22.9055 26.1346 22.8568C25.8308 22.7137 26.5894 21.8161 26.6547 21.6207C26.721 21.4257 26.9794 21.6207 27.3703 21.4257C27.7612 21.2307 27.6635 21.4141 27.7612 21.4257C27.9604 21.4502 27.9321 20.8449 27.9557 20.6448C27.9641 20.58 27.9756 20.4461 27.9557 20.384C27.9131 20.2507 27.7556 19.9927 27.6311 19.9288C27.5 19.8616 27.2411 19.9288 27.0456 19.8635C26.8502 19.7991 26.5899 19.7333 26.3944 19.6032C26.199 19.473 26.0563 19.1576 26.1346 19.0173C26.2837 18.751 27.0456 18.6268 27.2411 18.4971C27.4356 18.3675 27.2411 18.1067 27.2411 17.9117C27.2411 17.7163 27.9747 17.6593 28.216 17.7163C28.3934 17.7579 28.7714 17.8867 28.8672 18.0409C28.9441 18.166 28.8339 18.4842 28.8672 18.6268C28.9006 18.7686 28.9974 19.0807 29.1261 19.1474C29.2137 19.1928 29.4184 19.0914 29.517 19.0821C29.5865 19.0766 29.517 19.0821 29.7125 18.8871C29.9079 18.6921 29.8908 18.5337 29.9737 18.4318C30.0413 18.3466 30.2576 18.2619 30.3637 18.2364C30.5536 18.1915 30.9491 18.2271 31.1446 18.2364C31.3247 18.2447 31.68 18.3114 31.8592 18.3017C31.9986 18.2943 32.1848 18.2364 32.3803 18.1067C32.5757 17.977 33.226 17.6514 33.4215 17.456C33.616 17.2605 33.616 16.7404 33.5516 16.5449C33.4863 16.3499 33.559 16.3495 33.5516 16.2846C33.5335 16.1323 33.1825 15.9836 33.0306 15.9595C32.8976 15.9387 32.6244 16.0174 32.5104 16.0896C32.315 16.2128 32.0565 16.6149 31.925 16.8048C31.85 16.9127 31.7703 17.1832 31.6642 17.26C31.5971 17.3087 31.4229 17.317 31.3396 17.3254C31.0807 17.3518 30.5573 17.3439 30.2975 17.3254C30.0687 17.3091 29.5383 17.3698 29.3874 17.1961C29.3568 17.1595 29.3874 17.0947 29.3874 17.0044C29.3874 16.9951 29.3874 16.9683 29.3874 16.9358C29.3874 16.9141 29.3874 16.8918 29.3874 16.8668C29.3874 16.776 29.3674 16.7191 29.3874 16.6755C29.4948 16.4454 30.0298 16.2379 30.1682 16.0248C30.2965 15.8266 30.2822 15.3009 30.429 15.1142C30.7861 14.6543 31.9884 14.3046 32.4456 13.9429C32.6355 13.7928 33.0255 13.5326 33.2533 13.2695C37.2879 16.6024 39.8631 21.6406 39.8631 27.2694ZM25.9475 9.62118C25.9484 9.65731 25.9475 9.69066 25.9401 9.71474C25.8558 10.0028 25.4852 10.4303 25.1592 10.6253C24.8336 10.8208 25.142 11.163 25.1592 11.3414C25.1884 11.654 24.8831 12.2547 24.7044 12.5122C24.4728 12.8424 23.6623 13.4232 23.533 13.6187C23.4038 13.8137 23.106 14.0712 22.9476 14.2041C22.7253 14.3903 22.2311 14.79 22.0366 14.9197C21.8411 15.0499 21.4502 15.375 20.9708 16.286C20.4915 17.1966 20.3437 17.0326 20.1497 16.8719C19.8708 16.6413 18.8667 16.3699 18.9783 16.0257C19.0288 15.8678 18.9783 16.0257 18.4582 15.6135C17.9381 15.2018 17.902 14.5117 18.0025 14.1388C18.0404 13.998 18.2132 13.7553 18.2632 13.6187C18.3799 13.3038 18.3248 12.5233 18.5888 12.3168C18.738 12.1991 18.5888 12.3168 18.3281 11.6012C18.0673 10.8856 17.4351 11.1371 17.2216 10.8856C17.1572 10.8106 17.2461 10.5855 17.2878 10.4956C17.3392 10.3798 17.524 10.1964 17.6125 10.1047C17.7737 9.93891 18.1201 9.64527 18.279 9.44611C19.3906 9.23259 20.5378 9.1168 21.711 9.1168C23.1704 9.11773 24.5881 9.29466 25.9475 9.62118ZM10.4734 13.03C10.5845 13.03 10.7573 13.03 11.0417 13.03C12.0175 13.03 11.628 13.03 12.1472 12.9647C12.6674 12.899 12.6863 12.8225 12.8637 12.7693C13.0828 12.703 12.8637 12.7693 13.7748 12.704C14.6858 12.6387 13.7748 12.704 14.1374 12.6387C14.5001 12.5738 14.5552 12.5085 14.7506 12.6387C14.9452 12.7688 15.343 12.5845 15.5315 12.6387C15.8085 12.7192 16.1818 13.2889 16.3124 13.4844C16.443 13.6798 16.9618 14.2653 17.1581 14.6552C17.3536 15.0457 17.1581 14.6552 16.7024 14.9804C16.2476 15.306 16.4416 15.2411 16.2466 15.2411C16.0521 15.2411 15.6932 15.2569 15.532 15.1758C15.3907 15.1054 15.2319 14.8011 15.0962 14.7206C14.8789 14.5909 14.6557 14.3338 14.1383 14.3954C14.0281 14.4079 13.8632 14.5862 13.7757 14.6557C13.64 14.7627 13.3876 15.0012 13.2546 15.111C13.0962 15.2411 12.741 15.4602 12.6044 15.6131C12.4631 15.7715 12.2788 16.1522 12.0842 16.2819C11.8888 16.4115 12.1495 16.9539 12.2788 17.128C12.3746 17.2563 12.5835 17.5278 12.7345 17.5829C12.9652 17.6681 13.5145 17.518 13.7095 17.4527C13.9049 17.3874 13.9702 17.3874 14.3607 17.192C14.7516 16.997 14.3607 17.192 14.6214 16.997C14.8812 16.802 14.9581 16.7107 15.0962 16.6718C15.3583 16.5996 15.9312 16.5686 16.1827 16.6718C16.3527 16.7418 16.5852 17.0516 16.7028 17.192C16.9627 17.5004 17.1586 17.8432 17.8084 18.3633C18.4587 18.8834 18.5249 19.3392 18.6551 19.5999C18.7852 19.8602 18.5898 20.3808 18.4596 20.5749C18.3295 20.7703 18.0516 21.0107 17.8742 21.0959C17.2336 21.4016 16.2466 21.5512 15.0962 21.6814C13.9466 21.8115 15.0762 22.1366 15.0962 22.2672C15.117 22.3969 14.0351 23.1787 13.4496 23.6331C12.8642 24.0884 13.4496 23.6331 13.2542 23.6989C13.0587 23.7642 12.8642 24.0888 12.6687 24.2843C12.4733 24.4798 12.4733 25.1953 12.2778 25.3255C12.0833 25.4556 11.3668 25.6506 11.1714 25.6506C10.9768 25.6506 10.7823 25.6506 10.6522 25.6506C10.522 25.6506 10.3266 25.6506 10.1311 25.6506C9.93565 25.6506 9.78095 25.6066 9.67535 25.6506C9.52714 25.7127 9.28167 25.9577 9.2196 26.1059C9.18904 26.1809 9.18533 26.3579 9.2196 26.431C9.30992 26.6186 9.71796 26.8104 9.8708 26.9512C10.2446 27.2944 11.1074 28.2531 11.2376 28.4476C11.3677 28.6431 11.7262 29.3452 12.0185 29.4888C12.3107 29.6319 12.9934 29.4888 13.3195 29.4888C13.5237 29.4888 13.9346 29.4643 14.1383 29.4888C14.5209 29.5342 15.2068 29.7486 15.658 29.7486C16.1086 29.7486 16.3092 29.9649 16.4421 30.1395C16.6111 30.3628 16.7028 30.53 17.354 30.7898C18.0034 31.0506 18.0831 31.2168 18.3156 31.3757C18.643 31.5994 19.5647 31.8963 19.7602 32.026C19.9556 32.1557 20.2159 33.1968 20.541 33.7179C20.8657 34.2385 21.1265 34.6938 20.8666 35.2792C20.6059 35.8646 21.0612 36.0601 20.8666 36.2551C20.6712 36.4496 20.6712 36.6455 20.1511 37.4259C19.63 38.2068 19.4999 38.7923 19.3053 38.8571C19.1099 38.9219 17.7324 39.8395 17.9386 40.2887C18.0543 40.5402 17.9386 40.2887 17.0938 41.0043C16.248 41.7199 16.3772 41.6546 15.9873 41.85C15.5964 42.045 15.639 42.7671 15.6617 43.0867C15.6825 43.3905 15.613 43.9472 15.657 44.3775C15.4074 44.289 15.1605 44.1941 14.9151 44.0945C14.9206 43.7499 14.8572 43.3312 14.8155 43.0867C14.7511 42.6958 14.0346 39.7681 14.0346 39.443C14.0346 39.1174 13.5571 38.8812 13.4492 38.6616C13.3135 38.3842 13.4492 37.7349 13.4492 37.4259C13.4492 37.2629 13.5196 36.9216 13.4492 36.7752C13.4038 36.6812 13.1986 36.5867 13.1236 36.5144C12.8077 36.2152 12.201 35.5807 11.9684 35.2134C11.8735 35.0643 11.8003 34.703 11.6924 34.5627C11.5803 34.4159 11.1806 34.2783 11.107 34.1074C11.0037 33.8675 11.1714 33.4571 11.1714 33.0667C11.1714 32.6763 11.3668 32.6114 11.7767 32.0908C12.1866 31.5707 11.823 31.7657 11.7577 31.5707C11.6915 31.3752 11.823 31.2451 11.7577 31.0501C11.6915 30.8547 11.2839 30.404 11.1074 30.2044C10.9926 30.0752 10.7846 29.794 10.6526 29.6838C10.3326 29.4179 9.56512 29.0701 9.2196 28.8385C8.93106 28.6435 8.38268 28.2156 8.11405 27.9928C7.72592 27.6677 6.95893 27.0012 6.61805 26.626C6.50874 26.5056 6.342 26.2212 6.22807 26.1059C6.04003 25.916 5.52083 25.6835 5.38141 25.4552C5.13548 25.0453 5.0975 24.0453 5.05674 23.5687C5.01784 23.1148 5.09935 22.2006 5.05674 21.7467C5.02617 21.4146 5.10028 20.6592 4.98727 20.2127C6.18638 17.3791 8.09089 14.9142 10.4734 13.03Z" fill="#143975"/>
</svg>
