<svg width="24" height="30" viewBox="0 0 24 30" fill="none" xmlns="http://www.w3.org/2000/svg">
<path d="M18.5141 12.0771C18.1948 12.2547 18.2863 12.2504 18.1948 12.2547C18.0266 12.2622 17.4142 12.3257 17.5208 12.2547C17.6269 12.1834 17.705 12.0839 17.7247 12.0061C17.7315 11.9803 17.7423 11.9197 17.7247 11.8997C17.6378 11.8002 17.3298 11.8606 17.2017 11.829C17.1007 11.8037 16.9135 11.7049 16.8109 11.6867C16.7235 11.6713 16.5434 11.6708 16.4562 11.6867C16.2036 11.7327 15.6046 12.0061 15.7112 12.3966C15.8178 12.7872 15.9125 12.9408 16.0793 12.9999C16.1682 13.0315 16.3688 12.9641 16.4562 12.9999C16.5489 13.0383 16.6649 13.2169 16.7399 13.2839C16.7823 13.3215 16.8637 13.4069 16.9175 13.4259C16.9506 13.4377 17.0345 13.4011 17.0592 13.4259C17.0845 13.4514 17.0345 13.5428 17.0592 13.5681C17.1348 13.6431 17.3786 13.5681 17.4852 13.5681C17.5562 13.5681 17.6984 13.5681 17.7694 13.5681C17.8404 13.5681 17.9826 13.5681 18.0536 13.5681C18.1597 13.5681 18.3729 13.5681 18.4795 13.5681C18.524 13.5681 18.6122 13.5681 18.6561 13.5681C18.745 13.5681 18.9487 13.6305 19.0113 13.5681C19.0616 13.5178 19.0113 13.3549 19.0113 13.2841C19.0113 13.2399 19.0113 13.1513 19.0113 13.1068C19.0113 13.0201 18.9269 12.7801 19.0113 12.7602C19.0474 12.7516 19.073 12.7842 19.1884 12.6275C19.437 12.2905 19.4582 12.3934 19.437 12.2905C19.4236 12.2241 19.6363 12.2307 19.6856 12.1839C19.7498 12.1235 19.8273 11.9005 19.6856 11.8295C19.5434 11.7582 19.4729 11.7229 19.4014 11.6873C19.2154 11.5945 18.6207 11.2969 18.6207 11.4035C18.6207 11.5097 18.5856 11.6873 18.5856 11.7939C18.5856 11.8997 18.834 11.8995 18.5141 12.0771Z" fill="white"/>
<path d="M11.8426 25.201C17.5367 25.201 22.1695 20.5685 22.1695 14.8742C22.1695 9.17962 17.5367 4.54736 11.8426 4.54736C6.14857 4.54736 1.51581 9.17962 1.51581 14.8742C1.51581 20.5685 6.14857 25.201 11.8426 25.201ZM21.7435 14.8742C21.7435 15.0993 21.7332 15.3216 21.7183 15.5426C21.5929 15.5576 21.4558 15.6106 21.3886 15.624C21.211 15.6596 21.3886 15.624 21.282 15.624C21.1759 15.624 21.1261 15.7372 21.0692 15.7662C21.0134 15.7938 20.8808 15.7824 20.8212 15.7662C20.754 15.7475 20.6431 15.6596 20.6431 15.553C20.6431 15.4466 20.3593 15.411 20.1108 15.1983C19.8627 14.9853 19.9781 14.9318 20.0047 14.8434C20.0175 14.8002 19.9849 14.7092 19.969 14.667C19.9246 14.5432 19.85 14.2234 19.7204 14.2047C19.6712 14.1974 19.6108 14.3083 19.5787 14.3469C19.5103 14.4288 19.3306 14.7016 19.2945 14.6673C19.2589 14.6322 19.2468 15.0745 19.2945 15.1988C19.3561 15.3577 19.5668 15.6571 19.7204 15.7311C19.7945 15.7667 19.7204 15.7311 19.9337 15.9792C20.1464 16.2278 20.0966 16.2674 20.1823 16.3339C20.2729 16.4049 20.5647 16.2846 20.6431 16.3695C20.7156 16.4478 20.6756 16.6941 20.6431 16.7954C20.6062 16.9106 20.466 17.044 20.3593 17.1858C20.2527 17.328 20.1941 17.3131 20.1461 17.3634C20.0079 17.5112 19.969 18.0376 19.9334 18.144C19.8973 18.2506 19.6853 19.1378 19.6497 19.2442C19.6141 19.3506 19.5446 19.4319 19.5075 19.4925C19.3511 19.7459 19.1202 20.2977 18.9752 20.5571C18.812 20.8492 18.3363 21.5864 18.2655 21.6927C18.1948 21.7991 18.0958 21.884 18.0169 21.9057C17.8631 21.9481 17.5215 21.9757 17.378 21.9057C17.2363 21.8367 17.0473 21.5553 16.9882 21.4088C16.8579 21.0866 16.9008 20.3684 16.846 20.0248C16.8129 19.8189 16.6959 19.417 16.6689 19.2104C16.6353 18.9542 16.6328 18.3941 16.5979 18.1811C16.5623 17.9682 16.5747 18.0164 16.5979 17.9682C16.6621 17.8322 16.2781 17.5776 16.1715 17.5422C16.0654 17.5069 16.0654 17.4 15.9234 17.2583C15.7817 17.116 15.6559 17.2065 15.5687 17.2226C15.4719 17.2408 15.2767 17.1918 15.1784 17.187C15.0273 17.1802 14.711 17.2514 14.5748 17.187C14.3356 17.0744 14.0504 16.5896 13.9008 16.371C13.8336 16.2725 13.7232 16.0517 13.6876 15.9451C13.6525 15.8385 13.5815 15.5459 13.5454 15.4128C13.5039 15.2612 13.3539 14.9656 13.3683 14.8093C13.3849 14.6231 13.581 14.3833 13.7586 14.1706C13.9352 13.9576 14.0185 13.9493 14.1133 13.8866C14.2654 13.7869 14.2555 13.7447 14.6456 13.39C15.0359 13.0355 14.6456 13.39 14.6456 13.2126C14.6456 13.035 14.5316 12.9628 14.5746 12.893C14.612 12.8322 14.5746 12.893 14.4324 12.6447C14.2906 12.3966 14.3113 12.4939 14.2553 12.4674C14.0895 12.3893 14.5033 11.8997 14.539 11.7931C14.5751 11.6867 14.7161 11.7931 14.9293 11.6867C15.1425 11.5804 15.0892 11.6804 15.1425 11.6867C15.2511 11.7001 15.2357 11.3699 15.2486 11.2608C15.2532 11.2254 15.2595 11.1524 15.2486 11.1186C15.2254 11.0458 15.1395 10.9051 15.0715 10.8702C15 10.8336 14.8588 10.8702 14.7522 10.8346C14.6456 10.7995 14.5036 10.7636 14.397 10.6926C14.2904 10.6216 14.2126 10.4496 14.2553 10.373C14.3366 10.2278 14.7522 10.1601 14.8588 10.0893C14.9649 10.0186 14.8588 9.87637 14.8588 9.77002C14.8588 9.66341 15.259 9.63233 15.3906 9.66341C15.4873 9.68614 15.6935 9.75637 15.7458 9.8405C15.7877 9.90871 15.7276 10.0823 15.7458 10.1601C15.764 10.2374 15.8168 10.4077 15.887 10.444C15.9348 10.4688 16.0464 10.4135 16.1002 10.4084C16.1381 10.4054 16.1002 10.4084 16.2068 10.3021C16.3135 10.1957 16.3041 10.1093 16.3493 10.0537C16.3862 10.0072 16.5042 9.96101 16.562 9.94711C16.6656 9.92261 16.8814 9.94206 16.988 9.94711C17.0863 9.95166 17.28 9.98804 17.3778 9.98273C17.4538 9.97869 17.5554 9.94711 17.662 9.87637C17.7686 9.80564 18.1233 9.62804 18.2299 9.52143C18.336 9.41482 18.336 9.13111 18.3009 9.0245C18.2653 8.91814 18.3049 8.91789 18.3009 8.88252C18.2911 8.79941 18.0996 8.71831 18.0167 8.70517C17.9442 8.69381 17.7951 8.73675 17.733 8.77616C17.6264 8.84336 17.4854 9.06265 17.4137 9.16623C17.3727 9.22509 17.3293 9.37263 17.2714 9.41456C17.2348 9.44109 17.1398 9.44564 17.0943 9.45019C16.9531 9.46459 16.6676 9.46029 16.5259 9.45019C16.4011 9.44134 16.1119 9.47444 16.0295 9.3797C16.0128 9.35974 16.0295 9.32437 16.0295 9.27511C16.0295 9.27006 16.0295 9.25541 16.0295 9.23772C16.0295 9.22585 16.0295 9.21372 16.0295 9.20008C16.0295 9.15056 16.0186 9.11949 16.0295 9.09574C16.0881 8.97019 16.3799 8.85701 16.4554 8.7408C16.5254 8.63267 16.5176 8.34593 16.5977 8.24412C16.7924 7.99326 17.4483 7.80252 17.6976 7.60522C17.8012 7.52336 18.0139 7.38138 18.1382 7.23789C20.3389 9.05583 21.7435 11.804 21.7435 14.8742ZM14.1532 5.24791C14.1537 5.26762 14.1532 5.28581 14.1492 5.29894C14.1032 5.45608 13.9011 5.68926 13.7232 5.79562C13.5456 5.90223 13.7139 6.08892 13.7232 6.18618C13.7391 6.35671 13.5727 6.68437 13.4751 6.82484C13.3488 7.00496 12.9067 7.32176 12.8362 7.42837C12.7657 7.53473 12.6033 7.6752 12.5169 7.7477C12.3956 7.84926 12.1261 8.06728 12.02 8.13802C11.9134 8.20901 11.7001 8.38635 11.4387 8.88328C11.1772 9.37995 11.0966 9.29052 10.9908 9.20286C10.8387 9.07705 10.291 8.92901 10.3519 8.7413C10.3794 8.65515 10.3519 8.7413 10.0681 8.51646C9.78444 8.29187 9.76474 7.91545 9.81956 7.71208C9.84027 7.63528 9.9345 7.5029 9.96179 7.42837C10.0255 7.25658 9.99539 6.8309 10.1394 6.71823C10.2207 6.65406 10.1394 6.71823 9.99716 6.32791C9.85492 5.93759 9.51008 6.07477 9.39362 5.9376C9.3585 5.89667 9.40701 5.77389 9.42975 5.72488C9.45779 5.66172 9.55859 5.56168 9.60684 5.51166C9.69476 5.42122 9.88372 5.26105 9.97038 5.15242C10.5767 5.03595 11.2025 4.97279 11.8424 4.97279C12.6384 4.9733 13.4117 5.06981 14.1532 5.24791ZM5.71278 7.10728C5.77341 7.10728 5.86764 7.10728 6.02276 7.10728C6.55505 7.10728 6.34259 7.10728 6.62579 7.07166C6.90949 7.03578 6.91985 6.9941 7.01661 6.96505C7.1361 6.92892 7.01661 6.96505 7.51354 6.92943C8.01046 6.89381 7.51353 6.92943 7.71135 6.89381C7.90916 6.85844 7.93922 6.82282 8.04583 6.89381C8.15194 6.9648 8.36895 6.86425 8.47177 6.89381C8.62284 6.93776 8.82646 7.2485 8.8977 7.35511C8.96895 7.46172 9.25189 7.78105 9.35901 7.99376C9.46562 8.20673 9.35901 7.99376 9.11042 8.17111C8.86234 8.34871 8.96819 8.31334 8.86183 8.31334C8.75572 8.31334 8.55994 8.32193 8.47202 8.27772C8.39497 8.23932 8.30831 8.07334 8.23429 8.02938C8.11581 7.95865 7.99404 7.81844 7.71185 7.85204C7.65172 7.85886 7.56179 7.95612 7.51404 7.99402C7.44002 8.05237 7.30233 8.18248 7.22983 8.24235C7.14343 8.31334 6.94966 8.43284 6.87513 8.51621C6.79808 8.60261 6.69754 8.81027 6.59143 8.88101C6.48482 8.95174 6.62705 9.24757 6.69754 9.34256C6.74983 9.41254 6.86377 9.56059 6.94612 9.59065C7.07193 9.63713 7.37156 9.55528 7.47791 9.51966C7.58452 9.48404 7.62015 9.48404 7.83311 9.37743C8.04634 9.27107 7.83311 9.37743 7.97535 9.27107C8.11707 9.16471 8.15901 9.11494 8.23429 9.09372C8.37728 9.05431 8.68979 9.03738 8.82697 9.09372C8.91968 9.13187 9.0465 9.30088 9.11067 9.37743C9.2524 9.54568 9.35926 9.73263 9.7137 10.0163C10.0684 10.3 10.1045 10.5486 10.1755 10.6909C10.2465 10.8328 10.1399 11.1168 10.0689 11.2226C9.99791 11.3293 9.84634 11.4604 9.74958 11.5069C9.40019 11.6736 8.86183 11.7552 8.23429 11.8262C7.60726 11.8972 8.22343 12.0745 8.23429 12.1458C8.24566 12.2165 7.65551 12.6429 7.33619 12.8908C7.01686 13.1391 7.33619 12.8908 7.22958 12.9266C7.12297 12.9623 7.01686 13.1394 6.91025 13.246C6.80364 13.3526 6.80364 13.7429 6.69703 13.8139C6.59092 13.8849 6.2001 13.9912 6.09349 13.9912C5.98739 13.9912 5.88128 13.9912 5.81029 13.9912C5.7393 13.9912 5.63269 13.9912 5.52608 13.9912C5.41947 13.9912 5.33509 13.9672 5.27749 13.9912C5.19665 14.0251 5.06276 14.1587 5.0289 14.2396C5.01223 14.2805 5.01021 14.377 5.0289 14.4169C5.07817 14.5192 5.30073 14.6238 5.3841 14.7006C5.58798 14.8878 6.05863 15.4108 6.12962 15.5169C6.20061 15.6235 6.39615 16.0065 6.55556 16.0848C6.71497 16.1629 7.08735 16.0848 7.2652 16.0848C7.37661 16.0848 7.60069 16.0714 7.71185 16.0848C7.92052 16.1096 8.29467 16.2265 8.54073 16.2265C8.78655 16.2265 8.89594 16.3445 8.96844 16.4397C9.06065 16.5615 9.11067 16.6527 9.46587 16.7944C9.82006 16.9367 9.86351 17.0274 9.99033 17.114C10.1689 17.236 10.6717 17.398 10.7783 17.4687C10.8849 17.5394 11.0269 18.1074 11.2042 18.3916C11.3813 18.6755 11.5236 18.9239 11.3818 19.2432C11.2396 19.5625 11.4879 19.6691 11.3818 19.7755C11.2752 19.8816 11.2752 19.9885 10.9915 20.4141C10.7073 20.8401 10.6363 21.1594 10.5302 21.1948C10.4236 21.2301 9.67227 21.7306 9.78469 21.9757C9.84785 22.1128 9.78469 21.9757 9.32389 22.366C8.86259 22.7563 8.93307 22.7207 8.72036 22.8273C8.50713 22.9336 8.53038 23.3275 8.54276 23.5018C8.55412 23.6675 8.51623 23.9712 8.54023 24.2059C8.40406 24.1576 8.26941 24.1059 8.13551 24.0515C8.13855 23.8636 8.10393 23.6352 8.0812 23.5018C8.04608 23.2886 7.65526 21.6917 7.65526 21.5144C7.65526 21.3368 7.3948 21.2079 7.33593 21.0882C7.26191 20.9368 7.33593 20.5826 7.33593 20.4141C7.33593 20.3252 7.37433 20.139 7.33593 20.0592C7.31118 20.0079 7.19926 19.9564 7.15833 19.917C6.98604 19.7538 6.65509 19.4077 6.52827 19.2073C6.47648 19.126 6.43657 18.9289 6.3777 18.8524C6.31657 18.7723 6.09855 18.6973 6.05838 18.604C6.00204 18.4732 6.09349 18.2493 6.09349 18.0364C6.09349 17.8234 6.2001 17.788 6.42368 17.5041C6.64726 17.2204 6.44895 17.3267 6.41332 17.2204C6.3772 17.1138 6.44895 17.0428 6.41332 16.9364C6.3772 16.8298 6.15488 16.584 6.05863 16.4751C5.99598 16.4046 5.88255 16.2513 5.81055 16.1912C5.63598 16.0461 5.21737 15.8564 5.0289 15.7301C4.87151 15.6237 4.5724 15.3903 4.42587 15.2688C4.21417 15.0914 3.79581 14.7279 3.60987 14.5233C3.55025 14.4576 3.4593 14.3025 3.39716 14.2396C3.29459 14.136 3.01139 14.0092 2.93534 13.8846C2.8012 13.661 2.78048 13.1156 2.75825 12.8557C2.73703 12.6081 2.78149 12.1094 2.75825 11.8618C2.74158 11.6807 2.782 11.2686 2.72036 11.0251C3.37442 9.47949 4.41324 8.13498 5.71278 7.10728Z" fill="white"/>
</svg>
