<svg width="20" height="22" viewBox="0 0 20 22" fill="none" xmlns="http://www.w3.org/2000/svg">
<path d="M4.8659 7.00233L0.852995 4.64209C0.802647 4.61242 0.739072 4.61055 0.686591 4.63458C0.632403 4.65973 0.599976 4.70817 0.599976 4.76149V9.05243C0.599976 9.10011 0.627709 9.14442 0.672084 9.16995L4.68584 11.5317C4.71229 11.5471 4.74515 11.5557 4.77587 11.5557C4.80232 11.5557 4.82877 11.5505 4.85267 11.5388C4.90558 11.5133 4.93928 11.4649 4.93928 11.4123V7.12173C4.938 7.07404 4.91155 7.02899 4.8659 7.00233Z" fill="white"/>
<path d="M9.68926 15.1577L5.67636 12.7975C5.62601 12.7682 5.56244 12.7648 5.50995 12.7904C5.45705 12.8144 5.42334 12.8625 5.42334 12.9158V17.2078C5.42334 17.2555 5.45107 17.2998 5.49545 17.3261L9.5092 19.6875C9.53566 19.7029 9.56851 19.7111 9.59923 19.7111C9.62568 19.7111 9.65214 19.7048 9.67603 19.6942C9.72894 19.6691 9.76137 19.6207 9.76137 19.5677V15.2772C9.76137 15.2298 9.73491 15.184 9.68926 15.1577Z" fill="white"/>
<path d="M19.3232 4.94232C19.2716 4.91716 19.2093 4.91829 19.1589 4.94457L15.1447 7.09079C15.0969 7.1167 15.0671 7.16326 15.0671 7.21282V11.7197C15.0671 11.7722 15.1004 11.8207 15.1533 11.8443C15.1772 11.856 15.2036 11.862 15.2301 11.862C15.2612 11.862 15.2936 11.8541 15.3197 11.8383L19.3339 9.47694C19.3782 9.45066 19.406 9.40635 19.406 9.35792V5.06698C19.406 5.01478 19.3744 4.96748 19.3232 4.94232Z" fill="white"/>
<path d="M9.40402 4.40259C9.4053 4.35115 9.37501 4.30234 9.32381 4.27606L5.55752 2.30819C5.51102 2.28265 5.45214 2.2819 5.40264 2.30293L1.202 4.13863C1.14909 4.16229 1.11453 4.20885 1.11197 4.26029C1.10813 4.3106 1.13715 4.36054 1.18621 4.38757L4.94012 6.48949C4.96658 6.50413 4.99644 6.51202 5.02759 6.51202C5.05277 6.51202 5.07922 6.50638 5.10311 6.49512L9.31741 4.5265C9.36903 4.50134 9.40274 4.45366 9.40402 4.40259Z" fill="white"/>
<path d="M18.9749 4.56179C18.9736 4.50998 18.9416 4.46192 18.8887 4.43826L14.9223 2.5759C14.8745 2.55337 14.8169 2.55337 14.7691 2.57703L10.8411 4.44915C10.7895 4.47393 10.7562 4.52162 10.7562 4.57494C10.7562 4.62638 10.7882 4.67519 10.8399 4.70035L14.828 6.65845C14.8532 6.67009 14.8805 6.67648 14.9069 6.67648C14.9355 6.67648 14.9633 6.67009 14.9884 6.65733L18.8934 4.6887C18.9454 4.66205 18.9762 4.61436 18.9749 4.56179Z" fill="white"/>
<path d="M14.4964 12.7905C14.4439 12.765 14.3804 12.768 14.3296 12.7976L10.3171 15.1579C10.2714 15.1845 10.2437 15.23 10.2437 15.2773V19.5682C10.2437 19.6212 10.2774 19.6696 10.3299 19.6948C10.3542 19.7053 10.3803 19.712 10.4067 19.712C10.4383 19.712 10.4703 19.703 10.4967 19.688L14.5109 17.3266C14.5553 17.3003 14.583 17.256 14.583 17.2083V12.9167C14.583 12.8633 14.5493 12.8149 14.4964 12.7905Z" fill="white"/>
<path d="M14.1724 12.4152C14.1737 12.3638 14.1434 12.315 14.0922 12.2887L10.1809 10.0741C10.1344 10.0494 10.0755 10.0482 10.0264 10.0693L5.78013 12.2455C5.72765 12.2692 5.69266 12.3157 5.69052 12.3672C5.68668 12.4179 5.7157 12.4674 5.76477 12.4948L9.86343 14.857C9.88988 14.8716 9.91932 14.8791 9.9509 14.8791C9.97607 14.8791 10.0025 14.8738 10.0264 14.8622L14.0858 12.5388C14.1375 12.5144 14.1712 12.4667 14.1724 12.4152Z" fill="white"/>
<path d="M9.80233 4.94232C9.7507 4.91716 9.68841 4.91829 9.63806 4.94457L5.501 6.90343C5.45321 6.92934 5.42334 6.97552 5.42334 7.02546V11.5323C5.42334 11.5849 5.45662 11.6333 5.50953 11.6573C5.53342 11.6686 5.55988 11.6746 5.58633 11.6746C5.61748 11.6746 5.64948 11.6667 5.67593 11.6509L9.89492 9.63051C9.93929 9.60423 9.96703 9.55992 9.96703 9.51111L9.88553 5.06698C9.88553 5.01478 9.85438 4.96748 9.80233 4.94232Z" fill="white"/>
<path d="M14.5424 6.97922L10.5303 4.91485C10.48 4.88556 10.4168 4.88181 10.3639 4.90734C10.311 4.93174 10.2777 4.97981 10.2777 5.03275L10.3225 9.48364C10.3225 9.53133 10.3502 9.57526 10.3942 9.60154L14.4122 11.7594C14.4387 11.7748 14.4715 11.7834 14.5022 11.7834C14.5287 11.7834 14.5552 11.7767 14.579 11.7665C14.632 11.741 14.6644 11.6929 14.6644 11.6396V7.19061C14.6644 7.14292 14.588 7.00512 14.5424 6.97922Z" fill="white"/>
</svg>
