<?xml version="1.0" encoding="utf-8"?>
<!-- Generator: Adobe Illustrator 27.2.0, SVG Export Plug-In . SVG Version: 6.00 Build 0)  -->
<svg version="1.1" id="Layer_1" xmlns="http://www.w3.org/2000/svg" xmlns:xlink="http://www.w3.org/1999/xlink" x="0px" y="0px"
	 viewBox="0 0 42 30" style="enable-background:new 0 0 42 30;" xml:space="preserve">
<style type="text/css">
	.st0{fill:#FFFFFF;stroke:#F5F5F5;}
	.st1{fill:#FFFFFF;filter:url(#Adobe_OpacityMaskFilter);stroke:#FFFFFF;}
	.st2{mask:url(#mask0_0_838_00000131348130933768500240000007021234946399446926_);}
	.st3{fill:#FF3131;}
	.st4{fill-rule:evenodd;clip-rule:evenodd;fill:#FF3131;}
</style>
<path class="st0" d="M4,0.5h34c1.9,0,3.5,1.6,3.5,3.5v22c0,1.9-1.6,3.5-3.5,3.5H4c-1.9,0-3.5-1.6-3.5-3.5V4C0.5,2.1,2.1,0.5,4,0.5z"
	/>
<defs>
	<filter id="Adobe_OpacityMaskFilter" filterUnits="userSpaceOnUse" x="0" y="0" width="42" height="30">
		<feColorMatrix  type="matrix" values="1 0 0 0 0  0 1 0 0 0  0 0 1 0 0  0 0 0 1 0"/>
	</filter>
</defs>
<mask maskUnits="userSpaceOnUse" x="0" y="0" width="42" height="30" id="mask0_0_838_00000131348130933768500240000007021234946399446926_">
	<path class="st1" d="M4,0.5h34c1.9,0,3.5,1.6,3.5,3.5v22c0,1.9-1.6,3.5-3.5,3.5H4c-1.9,0-3.5-1.6-3.5-3.5V4C0.5,2.1,2.1,0.5,4,0.5z
		"/>
</mask>
<g class="st2">
	<rect x="30" class="st3" width="12" height="30"/>
	<path class="st4" d="M0,30h12V0H0V30z"/>
	<path class="st4" d="M24.5,13.5c-0.5,0.5-1.2,0-1.1-0.6L24,10l-2,1l-1-3l-1,3l-2-1l0.6,2.9c0.1,0.6-0.6,1.1-1.1,0.6
		c-0.3-0.3-0.7-0.3-0.9,0L16,14l-2-1l1,2l-0.5,0.5c-0.3,0.3-0.3,0.7,0,0.9L17,19h3l0.5,3h1l0.5-3h3l2.5-2.5c0.3-0.3,0.3-0.7,0-0.9
		L27,15l1-2l-2,1l-0.5-0.5C25.2,13.2,24.8,13.2,24.5,13.5z"/>
</g>
</svg>
