<svg width="167" height="19" viewBox="0 0 167 19" fill="none" xmlns="http://www.w3.org/2000/svg">
<path d="M17.376 10.776L20.64 1.2H25.464L18.192 18.984L12.768 8.856L7.368 18.984L0.096 1.2H4.896L8.208 10.776L12.768 0.36L17.376 10.776ZM30.3308 9.6C30.3308 10.592 30.5228 11.472 30.9068 12.24C31.3068 12.992 31.8588 13.584 32.5628 14.016C33.2828 14.448 34.1228 14.664 35.0828 14.664C36.0268 14.664 36.8508 14.448 37.5547 14.016C38.2748 13.584 38.8268 12.992 39.2108 12.24C39.6108 11.472 39.8108 10.592 39.8108 9.6C39.8108 8.608 39.6188 7.736 39.2348 6.984C38.8508 6.216 38.3068 5.616 37.6028 5.184C36.8988 4.752 36.0588 4.536 35.0828 4.536C34.1228 4.536 33.2828 4.752 32.5628 5.184C31.8588 5.616 31.3068 6.216 30.9068 6.984C30.5228 7.736 30.3308 8.608 30.3308 9.6ZM26.0348 9.6C26.0348 8.304 26.2588 7.12 26.7068 6.048C27.1708 4.976 27.8108 4.048 28.6268 3.264C29.4428 2.48 30.4028 1.88 31.5068 1.464C32.6108 1.032 33.8028 0.816 35.0828 0.816C36.3788 0.816 37.5708 1.032 38.6588 1.464C39.7628 1.88 40.7228 2.48 41.5388 3.264C42.3548 4.048 42.9868 4.976 43.4348 6.048C43.8828 7.12 44.1068 8.304 44.1068 9.6C44.1068 10.896 43.8828 12.088 43.4348 13.176C43.0028 14.264 42.3788 15.208 41.5628 16.008C40.7628 16.808 39.8108 17.432 38.7068 17.88C37.6028 18.312 36.3948 18.528 35.0828 18.528C33.7548 18.528 32.5388 18.312 31.4348 17.88C30.3308 17.432 29.3708 16.808 28.5548 16.008C27.7548 15.208 27.1308 14.264 26.6828 13.176C26.2508 12.088 26.0348 10.896 26.0348 9.6ZM50.9057 10.392H55.1057L60.3617 18H55.6097L50.9057 10.392ZM46.7057 1.2H50.7617V18H46.7057V1.2ZM49.2497 4.632V1.2H52.8257C54.2657 1.2 55.4657 1.432 56.4257 1.896C57.3857 2.36 58.1137 3.008 58.6097 3.84C59.1057 4.656 59.3537 5.608 59.3537 6.696C59.3537 7.768 59.1057 8.72 58.6097 9.552C58.1137 10.368 57.3857 11.008 56.4257 11.472C55.4657 11.936 54.2657 12.168 52.8257 12.168H49.2497V9.024H52.5377C53.0817 9.024 53.5457 8.944 53.9297 8.784C54.3297 8.608 54.6337 8.36 54.8417 8.04C55.0497 7.704 55.1537 7.304 55.1537 6.84C55.1537 6.376 55.0497 5.984 54.8417 5.664C54.6337 5.328 54.3297 5.072 53.9297 4.896C53.5457 4.72 53.0817 4.632 52.5377 4.632H49.2497ZM62.2448 1.2H66.4448V18H62.2448V1.2ZM72.1568 1.2H76.9088L70.0928 9.072L77.2688 18H72.3488L65.2688 9.192L72.1568 1.2Z" fill="#FFA033"/>
<path d="M82.05 9.648V7.872H84.762C85.226 7.872 85.618 7.8 85.938 7.656C86.274 7.512 86.53 7.312 86.706 7.056C86.882 6.784 86.97 6.456 86.97 6.072C86.97 5.496 86.778 5.064 86.394 4.776C86.01 4.488 85.466 4.344 84.762 4.344H83.082V14.856H85.146C85.674 14.856 86.146 14.792 86.562 14.664C86.978 14.52 87.306 14.296 87.546 13.992C87.802 13.672 87.93 13.24 87.93 12.696C87.93 12.344 87.858 12.04 87.714 11.784C87.57 11.528 87.37 11.32 87.114 11.16C86.858 11 86.562 10.888 86.226 10.824C85.906 10.744 85.546 10.704 85.146 10.704H82.05V8.496H85.602C86.418 8.496 87.21 8.584 87.978 8.76C88.746 8.936 89.442 9.224 90.066 9.624C90.69 10.008 91.186 10.504 91.554 11.112C91.938 11.704 92.13 12.424 92.13 13.272C92.13 14.392 91.858 15.296 91.314 15.984C90.786 16.672 90.034 17.184 89.058 17.52C88.082 17.84 86.93 18 85.602 18H79.026V1.2H85.194C86.362 1.2 87.386 1.36 88.266 1.68C89.162 1.984 89.866 2.456 90.378 3.096C90.906 3.72 91.17 4.512 91.17 5.472C91.17 6.352 90.906 7.104 90.378 7.728C89.866 8.352 89.162 8.832 88.266 9.168C87.386 9.488 86.362 9.648 85.194 9.648H82.05ZM99.1635 10.392H103.364L108.62 18H103.868L99.1635 10.392ZM94.9635 1.2H99.0195V18H94.9635V1.2ZM97.5075 4.632V1.2H101.084C102.524 1.2 103.724 1.432 104.684 1.896C105.644 2.36 106.372 3.008 106.868 3.84C107.364 4.656 107.612 5.608 107.612 6.696C107.612 7.768 107.364 8.72 106.868 9.552C106.372 10.368 105.644 11.008 104.684 11.472C103.724 11.936 102.524 12.168 101.084 12.168H97.5075V9.024H100.796C101.34 9.024 101.804 8.944 102.188 8.784C102.588 8.608 102.892 8.36 103.1 8.04C103.308 7.704 103.412 7.304 103.412 6.84C103.412 6.376 103.308 5.984 103.1 5.664C102.892 5.328 102.588 5.072 102.188 4.896C101.804 4.72 101.34 4.632 100.796 4.632H97.5075ZM110.503 1.2H114.631V18H110.503V1.2ZM118.19 1.2H122.366V18H118.19V1.2ZM124.19 18H120.878V14.4H124.046C124.686 14.4 125.302 14.32 125.894 14.16C126.502 14 127.03 13.736 127.478 13.368C127.942 13 128.31 12.512 128.582 11.904C128.854 11.28 128.99 10.512 128.99 9.6C128.99 8.688 128.854 7.928 128.582 7.32C128.31 6.696 127.942 6.2 127.478 5.832C127.03 5.464 126.502 5.2 125.894 5.04C125.302 4.88 124.686 4.8 124.046 4.8H120.878V1.2H124.19C126.03 1.2 127.622 1.544 128.966 2.232C130.31 2.92 131.35 3.888 132.086 5.136C132.822 6.384 133.19 7.872 133.19 9.6C133.19 11.312 132.822 12.8 132.086 14.064C131.35 15.312 130.31 16.28 128.966 16.968C127.622 17.656 126.03 18 124.19 18ZM144.12 11.928V8.808H152.616C152.696 10.152 152.56 11.408 152.208 12.576C151.856 13.744 151.312 14.776 150.576 15.672C149.84 16.568 148.92 17.272 147.816 17.784C146.712 18.28 145.448 18.528 144.024 18.528C142.68 18.528 141.448 18.32 140.328 17.904C139.208 17.472 138.24 16.864 137.424 16.08C136.608 15.28 135.968 14.336 135.504 13.248C135.056 12.144 134.832 10.928 134.832 9.6C134.832 8.272 135.064 7.072 135.528 6C135.992 4.912 136.648 3.984 137.496 3.216C138.344 2.448 139.336 1.856 140.472 1.44C141.608 1.024 142.84 0.816 144.168 0.816C145.352 0.816 146.416 0.983999 147.36 1.32C148.304 1.656 149.136 2.128 149.856 2.736C150.592 3.328 151.224 4.016 151.752 4.8L148.152 6.672C147.768 6 147.248 5.448 146.592 5.016C145.952 4.568 145.144 4.344 144.168 4.344C143.24 4.344 142.384 4.552 141.6 4.968C140.832 5.384 140.216 5.984 139.752 6.768C139.304 7.536 139.08 8.48 139.08 9.6C139.08 10.704 139.296 11.664 139.728 12.48C140.176 13.28 140.776 13.904 141.528 14.352C142.296 14.784 143.176 15 144.168 15C144.776 15 145.328 14.928 145.824 14.784C146.32 14.624 146.744 14.408 147.096 14.136C147.448 13.848 147.744 13.52 147.984 13.152C148.24 12.768 148.44 12.36 148.584 11.928H144.12ZM158.027 18V14.664H166.499V18H158.027ZM158.027 4.536V1.2H166.499V4.536H158.027ZM158.027 10.8V7.536H166.019V10.8H158.027ZM155.339 1.2H159.227V18H155.339V1.2Z" fill="white"/>
</svg>
